# xmcd CD database file
#
# Track frame offsets:
#	150
#	9725
#	22270
#	39815
#	53020
#	69197
#	86990
#	100550
#	112685
#	123295
#	132095
#	147147
#	158527
#
# Disc length: 2329 seconds
#
# Revision: 0
# Processed by: cddbd v1.4PL0 Copyright (c) Steve Scherf et al.
# Submitted via: CDex 1.40Release
#
DISCID=9609170d
DTITLE=Bishop Allen - Charm School
DYEAR=2002
DGENRE=Blues
TTITLE0=Charm School
TTITLE1=Little Black Ache
TTITLE2=Busted Heart
TTITLE3=Bishop Allen Drive
TTITLE4=Eve Of Destruction
TTITLE5=Things Are What You Make Of Them
TTITLE6=Ghosts Are Good Company
TTITLE7=Empire City
TTITLE8=Coupla Easy Things
TTITLE9=Penitentiary Bound
TTITLE10=Quarter To Three
TTITLE11=Another Wasted Night
TTITLE12=Things Are What You Make Of Them (reprise)
EXTD=YEAR: 2002 ID3G: 0
EXTT0=
EXTT1=
EXTT2=
EXTT3=
EXTT4=
EXTT5=
EXTT6=
EXTT7=
EXTT8=
EXTT9=
EXTT10=
EXTT11=
EXTT12=
PLAYORDER=
